# xmcd
#
# Track frame offsets: 
#        150
#        13186
#        29675
#        43032
#        59669
#        75351
#        89419
#        102140
#        113981
#        122293
#
# Disc length: 1835 seconds
#
# Revision: 0
# Processed by: cddbd v1.5.2PL0 Copyright (c) Steve Scherf et al.
# Submitted via: ExactAudioCopy v0.99pb4
#
DISCID=7b07290a
DTITLE=ETERNAL RUIN - Decomposing Salvation
DYEAR=2006
DGENRE=Death Metal
TTITLE0=Creature of Habit
TTITLE1=Decomposing Salvation
TTITLE2=Human Toll
TTITLE3=Perpetual Deviance
TTITLE4=Sanctions of Disbelief
TTITLE5=Target of Reprisal
TTITLE6=Excreting Hate
TTITLE7=Infection of The Times
TTITLE8=Enemy Within
TTITLE9=Violence In Epic Proportions
EXTD=
EXTT0=
EXTT1=
EXTT2=
EXTT3=
EXTT4=
EXTT5=
EXTT6=
EXTT7=
EXTT8=
EXTT9=
PLAYORDER=
